<mxfile host="www.draw.io" modified="2019-11-12T20:22:15.055Z" agent="Mozilla/5.0 (Macintosh; Intel Mac OS X 10_14_6) AppleWebKit/537.36 (KHTML, like Gecko) Chrome/78.0.3904.97 Safari/537.36" etag="r5_ZaJl86mMy9rRI5eXQ" version="12.2.4" type="github" pages="1">
  <diagram id="zpa2eWWvmDya2gij5Sh4" name="Page-1">
    <mxGraphModel dx="893" dy="585" grid="1" gridSize="10" guides="1" tooltips="1" connect="1" arrows="1" fold="1" page="1" pageScale="1" pageWidth="1900" pageHeight="1100" math="0" shadow="0">
      <root>
        <mxCell id="0"/>
        <mxCell id="1" parent="0"/>
        <mxCell id="dDy9uAQY1CPQ5ocqrjUP-1" value="Parallel Flow Chart" style="swimlane;html=1;childLayout=stackLayout;resizeParent=1;resizeParentMax=0;startSize=20;" parent="1" vertex="1">
          <mxGeometry x="24" y="50" width="850" height="480" as="geometry">
            <mxRectangle x="20" y="50" width="80" height="20" as="alternateBounds"/>
          </mxGeometry>
        </mxCell>
        <mxCell id="dDy9uAQY1CPQ5ocqrjUP-2" value="Node1" style="swimlane;html=1;startSize=20;" parent="dDy9uAQY1CPQ5ocqrjUP-1" vertex="1">
          <mxGeometry y="20" width="290" height="460" as="geometry"/>
        </mxCell>
        <mxCell id="dDy9uAQY1CPQ5ocqrjUP-8" style="edgeStyle=orthogonalEdgeStyle;rounded=0;orthogonalLoop=1;jettySize=auto;html=1;exitX=0.5;exitY=1;exitDx=0;exitDy=0;" parent="dDy9uAQY1CPQ5ocqrjUP-2" source="dDy9uAQY1CPQ5ocqrjUP-5" target="dDy9uAQY1CPQ5ocqrjUP-7" edge="1">
          <mxGeometry relative="1" as="geometry"/>
        </mxCell>
        <mxCell id="dDy9uAQY1CPQ5ocqrjUP-5" value="" style="rounded=1;whiteSpace=wrap;html=1;absoluteArcSize=1;arcSize=14;strokeWidth=2;fillColor=#e3c800;strokeColor=#B09500;fontColor=#ffffff;" parent="dDy9uAQY1CPQ5ocqrjUP-2" vertex="1">
          <mxGeometry x="10" y="30" width="50" height="50" as="geometry"/>
        </mxCell>
        <mxCell id="dDy9uAQY1CPQ5ocqrjUP-21" style="edgeStyle=orthogonalEdgeStyle;rounded=0;orthogonalLoop=1;jettySize=auto;html=1;" parent="dDy9uAQY1CPQ5ocqrjUP-2" source="dDy9uAQY1CPQ5ocqrjUP-7" target="dDy9uAQY1CPQ5ocqrjUP-11" edge="1">
          <mxGeometry relative="1" as="geometry"/>
        </mxCell>
        <mxCell id="dDy9uAQY1CPQ5ocqrjUP-7" value="" style="strokeWidth=2;html=1;shape=mxgraph.flowchart.decision;whiteSpace=wrap;fillColor=#dae8fc;strokeColor=#6c8ebf;" parent="dDy9uAQY1CPQ5ocqrjUP-2" vertex="1">
          <mxGeometry x="10" y="125" width="50" height="50" as="geometry"/>
        </mxCell>
        <mxCell id="dDy9uAQY1CPQ5ocqrjUP-32" style="edgeStyle=orthogonalEdgeStyle;rounded=0;orthogonalLoop=1;jettySize=auto;html=1;" parent="dDy9uAQY1CPQ5ocqrjUP-2" source="dDy9uAQY1CPQ5ocqrjUP-14" target="dDy9uAQY1CPQ5ocqrjUP-30" edge="1">
          <mxGeometry relative="1" as="geometry"/>
        </mxCell>
        <mxCell id="dDy9uAQY1CPQ5ocqrjUP-14" value="" style="strokeWidth=2;html=1;shape=mxgraph.flowchart.decision;whiteSpace=wrap;" parent="dDy9uAQY1CPQ5ocqrjUP-2" vertex="1">
          <mxGeometry x="10" y="290" width="50" height="50" as="geometry"/>
        </mxCell>
        <mxCell id="dDy9uAQY1CPQ5ocqrjUP-22" style="edgeStyle=orthogonalEdgeStyle;rounded=0;orthogonalLoop=1;jettySize=auto;html=1;entryX=0.5;entryY=0;entryDx=0;entryDy=0;entryPerimeter=0;" parent="dDy9uAQY1CPQ5ocqrjUP-2" source="dDy9uAQY1CPQ5ocqrjUP-11" target="dDy9uAQY1CPQ5ocqrjUP-14" edge="1">
          <mxGeometry relative="1" as="geometry"/>
        </mxCell>
        <mxCell id="dDy9uAQY1CPQ5ocqrjUP-11" value="" style="rounded=1;whiteSpace=wrap;html=1;absoluteArcSize=1;arcSize=14;strokeWidth=2;fillColor=#f8cecc;strokeColor=#b85450;" parent="dDy9uAQY1CPQ5ocqrjUP-2" vertex="1">
          <mxGeometry x="10" y="205" width="50" height="50" as="geometry"/>
        </mxCell>
        <mxCell id="dDy9uAQY1CPQ5ocqrjUP-30" value="" style="rounded=1;whiteSpace=wrap;html=1;absoluteArcSize=1;arcSize=14;strokeWidth=2;fillColor=#0050ef;strokeColor=#001DBC;fontColor=#ffffff;" parent="dDy9uAQY1CPQ5ocqrjUP-2" vertex="1">
          <mxGeometry x="10" y="375" width="50" height="50" as="geometry"/>
        </mxCell>
        <mxCell id="dDy9uAQY1CPQ5ocqrjUP-3" value="Lane 2" style="swimlane;html=1;startSize=20;" parent="dDy9uAQY1CPQ5ocqrjUP-1" vertex="1">
          <mxGeometry x="290" y="20" width="260" height="460" as="geometry"/>
        </mxCell>
        <mxCell id="dDy9uAQY1CPQ5ocqrjUP-9" value="" style="rounded=1;whiteSpace=wrap;html=1;absoluteArcSize=1;arcSize=14;strokeWidth=2;fillColor=#dae8fc;strokeColor=#6c8ebf;" parent="dDy9uAQY1CPQ5ocqrjUP-3" vertex="1">
          <mxGeometry x="20" y="125" width="50" height="50" as="geometry"/>
        </mxCell>
        <mxCell id="dDy9uAQY1CPQ5ocqrjUP-40" style="edgeStyle=orthogonalEdgeStyle;rounded=0;orthogonalLoop=1;jettySize=auto;html=1;entryX=0.5;entryY=0;entryDx=0;entryDy=0;dashed=1;" parent="dDy9uAQY1CPQ5ocqrjUP-3" source="dDy9uAQY1CPQ5ocqrjUP-23" target="dDy9uAQY1CPQ5ocqrjUP-26" edge="1">
          <mxGeometry relative="1" as="geometry"/>
        </mxCell>
        <mxCell id="dDy9uAQY1CPQ5ocqrjUP-23" value="" style="rounded=1;whiteSpace=wrap;html=1;absoluteArcSize=1;arcSize=14;strokeWidth=2;fillColor=#f8cecc;strokeColor=#b85450;" parent="dDy9uAQY1CPQ5ocqrjUP-3" vertex="1">
          <mxGeometry x="20" y="205" width="50" height="50" as="geometry"/>
        </mxCell>
        <mxCell id="dDy9uAQY1CPQ5ocqrjUP-26" value="" style="rounded=1;whiteSpace=wrap;html=1;absoluteArcSize=1;arcSize=14;strokeWidth=2;fillColor=#d5e8d4;strokeColor=#82b366;" parent="dDy9uAQY1CPQ5ocqrjUP-3" vertex="1">
          <mxGeometry x="20" y="290" width="50" height="50" as="geometry"/>
        </mxCell>
        <mxCell id="dDy9uAQY1CPQ5ocqrjUP-4" value="Lane 3" style="swimlane;html=1;startSize=20;" parent="dDy9uAQY1CPQ5ocqrjUP-1" vertex="1">
          <mxGeometry x="550" y="20" width="300" height="460" as="geometry"/>
        </mxCell>
        <mxCell id="dDy9uAQY1CPQ5ocqrjUP-37" value="" style="edgeStyle=orthogonalEdgeStyle;rounded=0;orthogonalLoop=1;jettySize=auto;html=1;" parent="dDy9uAQY1CPQ5ocqrjUP-4" source="dDy9uAQY1CPQ5ocqrjUP-34" target="dDy9uAQY1CPQ5ocqrjUP-36" edge="1">
          <mxGeometry relative="1" as="geometry"/>
        </mxCell>
        <mxCell id="dDy9uAQY1CPQ5ocqrjUP-34" value="" style="rounded=1;whiteSpace=wrap;html=1;absoluteArcSize=1;arcSize=14;strokeWidth=2;fillColor=#dae8fc;strokeColor=#6c8ebf;" parent="dDy9uAQY1CPQ5ocqrjUP-4" vertex="1">
          <mxGeometry x="50" y="125" width="50" height="50" as="geometry"/>
        </mxCell>
        <mxCell id="dDy9uAQY1CPQ5ocqrjUP-36" value="" style="rounded=1;whiteSpace=wrap;html=1;absoluteArcSize=1;arcSize=14;strokeWidth=2;fillColor=#f8cecc;strokeColor=#b85450;" parent="dDy9uAQY1CPQ5ocqrjUP-4" vertex="1">
          <mxGeometry x="50" y="205" width="50" height="50" as="geometry"/>
        </mxCell>
        <mxCell id="dDy9uAQY1CPQ5ocqrjUP-10" value="" style="edgeStyle=orthogonalEdgeStyle;rounded=0;orthogonalLoop=1;jettySize=auto;html=1;" parent="dDy9uAQY1CPQ5ocqrjUP-1" source="dDy9uAQY1CPQ5ocqrjUP-7" target="dDy9uAQY1CPQ5ocqrjUP-9" edge="1">
          <mxGeometry relative="1" as="geometry"/>
        </mxCell>
        <mxCell id="dDy9uAQY1CPQ5ocqrjUP-25" style="edgeStyle=orthogonalEdgeStyle;rounded=0;orthogonalLoop=1;jettySize=auto;html=1;" parent="dDy9uAQY1CPQ5ocqrjUP-1" source="dDy9uAQY1CPQ5ocqrjUP-23" target="dDy9uAQY1CPQ5ocqrjUP-11" edge="1">
          <mxGeometry relative="1" as="geometry"/>
        </mxCell>
        <mxCell id="dDy9uAQY1CPQ5ocqrjUP-29" value="" style="edgeStyle=orthogonalEdgeStyle;rounded=0;orthogonalLoop=1;jettySize=auto;html=1;entryX=0;entryY=0.5;entryDx=0;entryDy=0;" parent="dDy9uAQY1CPQ5ocqrjUP-1" source="dDy9uAQY1CPQ5ocqrjUP-14" target="dDy9uAQY1CPQ5ocqrjUP-26" edge="1">
          <mxGeometry relative="1" as="geometry">
            <mxPoint x="140" y="335" as="targetPoint"/>
          </mxGeometry>
        </mxCell>
        <mxCell id="dDy9uAQY1CPQ5ocqrjUP-33" style="edgeStyle=orthogonalEdgeStyle;rounded=0;orthogonalLoop=1;jettySize=auto;html=1;entryX=1;entryY=0.5;entryDx=0;entryDy=0;" parent="dDy9uAQY1CPQ5ocqrjUP-1" source="dDy9uAQY1CPQ5ocqrjUP-26" target="dDy9uAQY1CPQ5ocqrjUP-30" edge="1">
          <mxGeometry relative="1" as="geometry">
            <Array as="points">
              <mxPoint x="335" y="420"/>
            </Array>
          </mxGeometry>
        </mxCell>
        <mxCell id="dDy9uAQY1CPQ5ocqrjUP-35" style="edgeStyle=orthogonalEdgeStyle;rounded=0;orthogonalLoop=1;jettySize=auto;html=1;" parent="dDy9uAQY1CPQ5ocqrjUP-1" source="dDy9uAQY1CPQ5ocqrjUP-9" target="dDy9uAQY1CPQ5ocqrjUP-34" edge="1">
          <mxGeometry relative="1" as="geometry"/>
        </mxCell>
        <mxCell id="dDy9uAQY1CPQ5ocqrjUP-39" style="edgeStyle=orthogonalEdgeStyle;rounded=0;orthogonalLoop=1;jettySize=auto;html=1;entryX=1;entryY=0.5;entryDx=0;entryDy=0;dashed=1;" parent="dDy9uAQY1CPQ5ocqrjUP-1" source="dDy9uAQY1CPQ5ocqrjUP-36" target="dDy9uAQY1CPQ5ocqrjUP-26" edge="1">
          <mxGeometry relative="1" as="geometry">
            <Array as="points">
              <mxPoint x="625" y="335"/>
            </Array>
          </mxGeometry>
        </mxCell>
      </root>
    </mxGraphModel>
  </diagram>
</mxfile>
